<svg width="300" height="400" viewBox="0 0 300 400" fill="none" xmlns="http://www.w3.org/2000/svg">
<rect width="300" height="400" rx="4" fill="url(#paint0_linear_37_3996)"/>
<path d="M150 241.667C144.306 241.667 138.924 240.573 133.854 238.385C128.785 236.198 124.358 233.212 120.573 229.427C116.788 225.642 113.802 221.215 111.615 216.146C109.427 211.076 108.333 205.694 108.333 200C108.333 194.236 109.427 188.819 111.615 183.75C113.802 178.681 116.788 174.271 120.573 170.521C124.358 166.771 128.785 163.802 133.854 161.615C138.924 159.427 144.306 158.333 150 158.333C155.764 158.333 161.181 159.427 166.25 161.615C171.319 163.802 175.729 166.771 179.479 170.521C183.229 174.271 186.198 178.681 188.385 183.75C190.573 188.819 191.667 194.236 191.667 200C191.667 205.694 190.573 211.076 188.385 216.146C186.198 221.215 183.229 225.642 179.479 229.427C175.729 233.212 171.319 236.198 166.25 238.385C161.181 240.573 155.764 241.667 150 241.667ZM150 164.583C141.528 164.583 134.097 167.205 127.708 172.448C121.319 177.691 117.222 184.306 115.417 192.292C118.264 192.292 120.608 191.615 122.448 190.26C124.288 188.906 126.215 186.25 128.229 182.292C129.201 180.347 130.608 178.819 132.448 177.708C134.288 176.597 136.319 176.042 138.542 176.042H161.458C163.681 176.042 165.712 176.597 167.552 177.708C169.392 178.819 170.799 180.347 171.771 182.292C173.785 186.458 175.799 189.167 177.813 190.417C179.826 191.667 182.083 192.292 184.583 192.292C182.778 184.306 178.698 177.691 172.344 172.448C165.99 167.205 158.542 164.583 150 164.583ZM150 235.417C159.861 235.417 168.229 231.962 175.104 225.052C181.979 218.142 185.417 209.792 185.417 200V198.75C180.139 198.75 176.059 197.378 173.177 194.635C170.295 191.892 167.951 188.75 166.146 185.208C165.66 184.236 165.017 183.507 164.219 183.021C163.42 182.535 162.535 182.292 161.563 182.292H138.542C137.5 182.292 136.58 182.535 135.781 183.021C134.983 183.507 134.34 184.236 133.854 185.208C132.049 188.819 129.653 191.997 126.667 194.74C123.681 197.483 119.653 198.854 114.583 198.854V200C114.583 209.792 118.038 218.142 124.948 225.052C131.858 231.962 140.208 235.417 150 235.417ZM136.875 210.104C135.278 210.104 133.941 209.566 132.865 208.49C131.788 207.413 131.25 206.076 131.25 204.479C131.25 202.882 131.788 201.545 132.865 200.469C133.941 199.392 135.278 198.854 136.875 198.854C138.472 198.854 139.809 199.392 140.885 200.469C141.962 201.545 142.5 202.882 142.5 204.479C142.5 206.076 141.962 207.413 140.885 208.49C139.809 209.566 138.472 210.104 136.875 210.104ZM163.229 210.104C161.632 210.104 160.295 209.566 159.219 208.49C158.142 207.413 157.604 206.076 157.604 204.479C157.604 202.882 158.142 201.545 159.219 200.469C160.295 199.392 161.632 198.854 163.229 198.854C164.826 198.854 166.163 199.392 167.24 200.469C168.316 201.545 168.854 202.882 168.854 204.479C168.854 206.076 168.316 207.413 167.24 208.49C166.163 209.566 164.826 210.104 163.229 210.104Z" fill="#CB01C7"/>
<defs>
<linearGradient id="paint0_linear_37_3996" x1="150" y1="0" x2="150" y2="400" gradientUnits="userSpaceOnUse">
<stop stop-color="#353535"/>
<stop offset="1" stop-color="#353535" stop-opacity="0"/>
</linearGradient>
</defs>
</svg>
