<svg width="196" height="67" viewBox="0 0 196 67" fill="none" xmlns="http://www.w3.org/2000/svg">
<circle cx="33.5" cy="33.5" r="33.0864" stroke="url(#paint0_linear_25_7898)" stroke-width="0.827161"/>
<path d="M20.6247 35.2346L16.4936 20.7969H19.8281L22.2179 30.8285H22.3378L24.9744 20.7969H27.8295L30.459 30.8497H30.5859L32.9757 20.7969H36.3102L32.1791 35.2346H29.2042L26.4548 25.7951H26.342L23.5997 35.2346H20.6247ZM41.6591 35.4461C40.5453 35.4461 39.5865 35.2205 38.7829 34.7693C37.9839 34.3134 37.3683 33.6695 36.9359 32.8377C36.5035 32.0011 36.2873 31.0118 36.2873 29.8698C36.2873 28.7559 36.5035 27.7784 36.9359 26.9371C37.3683 26.0959 37.9769 25.4402 38.7617 24.9703C39.5513 24.5003 40.4772 24.2653 41.5393 24.2653C42.2537 24.2653 42.9187 24.3804 43.5344 24.6107C44.1547 24.8363 44.6952 25.177 45.1558 25.6329C45.6211 26.0888 45.9829 26.6622 46.2414 27.353C46.4999 28.0392 46.6292 28.8429 46.6292 29.764V30.5888H37.4857V28.7277H43.8022C43.8022 28.2953 43.7083 27.9123 43.5203 27.5786C43.3323 27.2449 43.0714 26.9841 42.7377 26.7961C42.4088 26.6034 42.0257 26.5071 41.5887 26.5071C41.1328 26.5071 40.7286 26.6128 40.3761 26.8243C40.0283 27.0311 39.7557 27.3107 39.5583 27.6632C39.361 28.011 39.2599 28.3987 39.2552 28.8264V30.5959C39.2552 31.1317 39.3539 31.5946 39.5513 31.9847C39.7534 32.3748 40.0377 32.6755 40.4043 32.887C40.7709 33.0985 41.2056 33.2043 41.7085 33.2043C42.0422 33.2043 42.3477 33.1573 42.625 33.0633C42.9022 32.9693 43.1396 32.8283 43.337 32.6403C43.5344 32.4523 43.6848 32.222 43.7881 31.9494L46.5657 32.1327C46.4247 32.8001 46.1357 33.3829 45.6986 33.881C45.2662 34.3745 44.707 34.7599 44.0208 35.0372C43.3393 35.3098 42.5521 35.4461 41.6591 35.4461ZM51.5921 20.7969V35.2346H48.589V20.7969H51.5921ZM53.9978 35.2346V24.4063H57.001V35.2346H53.9978ZM55.5065 23.0104C55.06 23.0104 54.6769 22.8624 54.3574 22.5663C54.0425 22.2655 53.885 21.906 53.885 21.4877C53.885 21.0741 54.0425 20.7193 54.3574 20.4232C54.6769 20.1224 55.06 19.972 55.5065 19.972C55.9529 19.972 56.3336 20.1224 56.6485 20.4232C56.9681 20.7193 57.1279 21.0741 57.1279 21.4877C57.1279 21.906 56.9681 22.2655 56.6485 22.5663C56.3336 22.8624 55.9529 23.0104 55.5065 23.0104ZM62.4098 28.9745V35.2346H59.4067V24.4063H62.2688V26.3167H62.3957C62.6354 25.687 63.0373 25.1888 63.6012 24.8222C64.1652 24.4509 64.849 24.2653 65.6527 24.2653C66.4046 24.2653 67.0603 24.4298 67.6195 24.7588C68.1788 25.0877 68.6135 25.5577 68.9237 26.1687C69.2339 26.775 69.389 27.4987 69.389 28.34V35.2346H66.3858V28.8758C66.3905 28.2131 66.2214 27.6961 65.8783 27.3248C65.5352 26.9489 65.0629 26.7609 64.4613 26.7609C64.0571 26.7609 63.6999 26.8478 63.3897 27.0217C63.0843 27.1956 62.8446 27.4494 62.6707 27.7831C62.5015 28.1121 62.4145 28.5092 62.4098 28.9745ZM76.6343 39.5208C75.6614 39.5208 74.8272 39.3868 74.1317 39.1189C73.4408 38.8557 72.8909 38.4962 72.482 38.0403C72.0732 37.5845 71.8076 37.0722 71.6854 36.5035L74.463 36.1299C74.5476 36.3461 74.6815 36.5482 74.8648 36.7361C75.0481 36.9241 75.2902 37.0745 75.5909 37.1873C75.8964 37.3048 76.2677 37.3636 76.7048 37.3636C77.3581 37.3636 77.8962 37.2038 78.3192 36.8842C78.7468 36.5693 78.9607 36.0406 78.9607 35.298V33.3171H78.8338C78.7022 33.6178 78.5048 33.9022 78.2416 34.1701C77.9784 34.438 77.64 34.6565 77.2265 34.8257C76.8129 34.9949 76.3194 35.0795 75.746 35.0795C74.933 35.0795 74.1928 34.8915 73.5254 34.5155C72.8627 34.1348 72.334 33.5544 71.9392 32.7742C71.5491 31.9894 71.3541 30.9977 71.3541 29.7993C71.3541 28.5726 71.5538 27.5481 71.9533 26.7256C72.3528 25.9032 72.8839 25.2875 73.5465 24.8786C74.2139 24.4697 74.9447 24.2653 75.739 24.2653C76.3453 24.2653 76.8528 24.3687 77.2617 24.5755C77.6706 24.7776 77.9996 25.0314 78.2487 25.3368C78.5025 25.6376 78.6975 25.9337 78.8338 26.2251H78.9466V24.4063H81.9286V35.3403C81.9286 36.2615 81.703 37.0322 81.2518 37.6526C80.8006 38.273 80.1756 38.7382 79.3766 39.0484C78.5824 39.3633 77.6682 39.5208 76.6343 39.5208ZM76.6977 32.8236C77.1818 32.8236 77.5907 32.7037 77.9244 32.464C78.2628 32.2197 78.5213 31.8719 78.6998 31.4207C78.8831 30.9648 78.9748 30.4196 78.9748 29.7852C78.9748 29.1507 78.8855 28.6008 78.7069 28.1356C78.5283 27.6656 78.2698 27.3013 77.9314 27.0429C77.593 26.7844 77.1818 26.6551 76.6977 26.6551C76.2043 26.6551 75.7883 26.7891 75.45 27.057C75.1116 27.3201 74.8554 27.6867 74.6815 28.1567C74.5076 28.6267 74.4207 29.1695 74.4207 29.7852C74.4207 30.4102 74.5076 30.9507 74.6815 31.4066C74.8601 31.8578 75.1163 32.2079 75.45 32.457C75.7883 32.7014 76.2043 32.8236 76.6977 32.8236ZM90.078 24.4063V26.6622H83.5571V24.4063H90.078ZM85.0375 21.812H88.0406V31.9071C88.0406 32.1844 88.0829 32.4006 88.1675 32.5557C88.2521 32.7061 88.3696 32.8118 88.52 32.8729C88.6751 32.934 88.8537 32.9646 89.0558 32.9646C89.1968 32.9646 89.3378 32.9528 89.4788 32.9293C89.6198 32.9011 89.7279 32.88 89.8031 32.8659L90.2754 35.1006C90.125 35.1476 89.9135 35.2017 89.6409 35.2628C89.3683 35.3286 89.037 35.3685 88.6469 35.3826C87.9232 35.4108 87.2887 35.3145 86.7435 35.0936C86.203 34.8727 85.7824 34.5296 85.4816 34.0643C85.1808 33.599 85.0328 33.0116 85.0375 32.3019V21.812ZM96.8104 35.4461C95.7154 35.4461 94.7684 35.2134 93.9694 34.7481C93.1752 34.2782 92.5618 33.6249 92.1295 32.7883C91.6971 31.9471 91.4809 30.9719 91.4809 29.8627C91.4809 28.7442 91.6971 27.7666 92.1295 26.9301C92.5618 26.0888 93.1752 25.4355 93.9694 24.9703C94.7684 24.5003 95.7154 24.2653 96.8104 24.2653C97.9055 24.2653 98.8501 24.5003 99.6444 24.9703C100.443 25.4355 101.059 26.0888 101.491 26.9301C101.924 27.7666 102.14 28.7442 102.14 29.8627C102.14 30.9719 101.924 31.9471 101.491 32.7883C101.059 33.6249 100.443 34.2782 99.6444 34.7481C98.8501 35.2134 97.9055 35.4461 96.8104 35.4461ZM96.8245 33.1197C97.3227 33.1197 97.7386 32.9787 98.0723 32.6967C98.406 32.41 98.6574 32.0199 98.8266 31.5264C99.0005 31.033 99.0875 30.4713 99.0875 29.8416C99.0875 29.2118 99.0005 28.6502 98.8266 28.1567C98.6574 27.6632 98.406 27.2731 98.0723 26.9865C97.7386 26.6998 97.3227 26.5564 96.8245 26.5564C96.3217 26.5564 95.8987 26.6998 95.5556 26.9865C95.2172 27.2731 94.9611 27.6632 94.7872 28.1567C94.618 28.6502 94.5334 29.2118 94.5334 29.8416C94.5334 30.4713 94.618 31.033 94.7872 31.5264C94.9611 32.0199 95.2172 32.41 95.5556 32.6967C95.8987 32.9787 96.3217 33.1197 96.8245 33.1197ZM107.096 28.9745V35.2346H104.093V24.4063H106.955V26.3167H107.082C107.321 25.687 107.723 25.1888 108.287 24.8222C108.851 24.4509 109.535 24.2653 110.339 24.2653C111.091 24.2653 111.746 24.4298 112.306 24.7588C112.865 25.0877 113.3 25.5577 113.61 26.1687C113.92 26.775 114.075 27.4987 114.075 28.34V35.2346H111.072V28.8758C111.077 28.2131 110.907 27.6961 110.564 27.3248C110.221 26.9489 109.749 26.7609 109.147 26.7609C108.743 26.7609 108.386 26.8478 108.076 27.0217C107.77 27.1956 107.531 27.4494 107.357 27.7831C107.188 28.1121 107.101 28.5092 107.096 28.9745ZM121.093 20.7969H124.858L128.834 30.4972H129.003L132.979 20.7969H136.743V35.2346H133.782V25.8374H133.663L129.926 35.1641H127.91L124.174 25.8021H124.054V35.2346H121.093V20.7969ZM142.29 35.439C141.599 35.439 140.983 35.3192 140.443 35.0795C139.902 34.8351 139.474 34.4756 139.16 34.0009C138.849 33.5215 138.694 32.9246 138.694 32.2103C138.694 31.6087 138.805 31.1035 139.026 30.6946C139.246 30.2857 139.547 29.9567 139.928 29.7076C140.309 29.4585 140.741 29.2706 141.225 29.1437C141.714 29.0168 142.226 28.9275 142.762 28.8758C143.392 28.81 143.899 28.7489 144.285 28.6925C144.67 28.6314 144.95 28.5421 145.124 28.4246C145.297 28.3071 145.384 28.1332 145.384 27.9029V27.8606C145.384 27.4141 145.243 27.0687 144.961 26.8243C144.684 26.5799 144.289 26.4577 143.777 26.4577C143.237 26.4577 142.807 26.5776 142.487 26.8173C142.167 27.0523 141.956 27.3483 141.852 27.7055L139.075 27.4799C139.216 26.822 139.493 26.2533 139.907 25.7739C140.32 25.2898 140.854 24.9186 141.507 24.6601C142.165 24.3969 142.926 24.2653 143.791 24.2653C144.393 24.2653 144.968 24.3358 145.518 24.4768C146.073 24.6178 146.564 24.8363 146.992 25.1324C147.424 25.4285 147.765 25.8092 148.014 26.2744C148.263 26.735 148.388 27.2872 148.388 27.9311V35.2346H145.539V33.733H145.455C145.281 34.0714 145.048 34.3698 144.757 34.6283C144.466 34.8821 144.115 35.0818 143.707 35.2275C143.298 35.3685 142.825 35.439 142.29 35.439ZM143.15 33.3664C143.591 33.3664 143.981 33.2795 144.32 33.1056C144.658 32.927 144.924 32.6873 145.116 32.3865C145.309 32.0857 145.406 31.745 145.406 31.3643V30.2152C145.312 30.2763 145.182 30.3327 145.018 30.3844C144.858 30.4314 144.677 30.476 144.475 30.5183C144.273 30.5559 144.071 30.5912 143.869 30.6241C143.667 30.6523 143.483 30.6781 143.319 30.7016C142.966 30.7533 142.659 30.8356 142.395 30.9484C142.132 31.0612 141.928 31.2139 141.782 31.4066C141.636 31.5946 141.563 31.8296 141.563 32.1116C141.563 32.5204 141.711 32.833 142.008 33.0492C142.308 33.2607 142.689 33.3664 143.15 33.3664ZM150.717 35.2346V24.4063H153.629V26.2956H153.742C153.939 25.6235 154.27 25.1159 154.736 24.7729C155.201 24.4251 155.737 24.2512 156.343 24.2512C156.493 24.2512 156.656 24.2606 156.829 24.2794C157.003 24.2982 157.156 24.324 157.288 24.3569V27.0217C157.147 26.9794 156.952 26.9418 156.703 26.9089C156.454 26.876 156.226 26.8596 156.019 26.8596C155.577 26.8596 155.182 26.9559 154.834 27.1486C154.491 27.3366 154.219 27.5998 154.017 27.9382C153.819 28.2765 153.721 28.6666 153.721 29.1084V35.2346H150.717ZM165.143 24.4063V26.6622H158.622V24.4063H165.143ZM160.102 21.812H163.105V31.9071C163.105 32.1844 163.148 32.4006 163.232 32.5557C163.317 32.7061 163.434 32.8118 163.585 32.8729C163.74 32.934 163.919 32.9646 164.121 32.9646C164.262 32.9646 164.403 32.9528 164.544 32.9293C164.685 32.9011 164.793 32.88 164.868 32.8659L165.34 35.1006C165.19 35.1476 164.978 35.2017 164.706 35.2628C164.433 35.3286 164.102 35.3685 163.712 35.3826C162.988 35.4108 162.354 35.3145 161.808 35.0936C161.268 34.8727 160.847 34.5296 160.546 34.0643C160.246 33.599 160.098 33.0116 160.102 32.3019V21.812ZM167.099 35.2346V24.4063H170.102V35.2346H167.099ZM168.608 23.0104C168.161 23.0104 167.778 22.8624 167.459 22.5663C167.144 22.2655 166.986 21.906 166.986 21.4877C166.986 21.0741 167.144 20.7193 167.459 20.4232C167.778 20.1224 168.161 19.972 168.608 19.972C169.054 19.972 169.435 20.1224 169.75 20.4232C170.069 20.7193 170.229 21.0741 170.229 21.4877C170.229 21.906 170.069 22.2655 169.75 22.5663C169.435 22.8624 169.054 23.0104 168.608 23.0104ZM175.511 28.9745V35.2346H172.508V24.4063H175.37V26.3167H175.497C175.737 25.687 176.139 25.1888 176.703 24.8222C177.266 24.4509 177.95 24.2653 178.754 24.2653C179.506 24.2653 180.162 24.4298 180.721 24.7588C181.28 25.0877 181.715 25.5577 182.025 26.1687C182.335 26.775 182.49 27.4987 182.49 28.34V35.2346H179.487V28.8758C179.492 28.2131 179.323 27.6961 178.98 27.3248C178.636 26.9489 178.164 26.7609 177.563 26.7609C177.158 26.7609 176.801 26.8478 176.491 27.0217C176.186 27.1956 175.946 27.4494 175.772 27.7831C175.603 28.1121 175.516 28.5092 175.511 28.9745ZM193.867 27.494L191.117 27.6632C191.07 27.4282 190.969 27.2167 190.814 27.0288C190.659 26.8361 190.455 26.6833 190.201 26.5705C189.952 26.453 189.653 26.3943 189.306 26.3943C188.84 26.3943 188.448 26.493 188.128 26.6904C187.809 26.8831 187.649 27.1416 187.649 27.4658C187.649 27.7243 187.752 27.9429 187.959 28.1215C188.166 28.3 188.521 28.4434 189.024 28.5515L190.983 28.9463C192.036 29.1625 192.821 29.5102 193.338 29.9896C193.855 30.469 194.113 31.0988 194.113 31.8789C194.113 32.5886 193.904 33.2113 193.486 33.7471C193.072 34.2829 192.504 34.7011 191.78 35.0019C191.061 35.298 190.231 35.4461 189.291 35.4461C187.858 35.4461 186.716 35.1476 185.865 34.5507C185.019 33.9492 184.524 33.1314 184.378 32.0975L187.332 31.9424C187.421 32.3795 187.637 32.7131 187.98 32.9434C188.323 33.169 188.763 33.2818 189.298 33.2818C189.825 33.2818 190.248 33.1808 190.567 32.9787C190.892 32.7719 191.056 32.5063 191.061 32.1821C191.056 31.9095 190.941 31.6862 190.715 31.5123C190.49 31.3338 190.142 31.1975 189.672 31.1035L187.797 30.7298C186.739 30.5183 185.952 30.1518 185.435 29.6301C184.923 29.1084 184.667 28.4434 184.667 27.635C184.667 26.9395 184.855 26.3402 185.231 25.8374C185.612 25.3345 186.145 24.9468 186.831 24.6742C187.522 24.4016 188.33 24.2653 189.256 24.2653C190.624 24.2653 191.7 24.5543 192.485 25.1324C193.274 25.7105 193.735 26.4977 193.867 27.494Z" fill="white"/>
<path d="M54.6001 45.8126H55.8749V51.3518C55.8749 51.9413 55.7364 52.4635 55.4595 52.9186C55.1826 53.371 54.7933 53.7274 54.2916 53.9878C53.7899 54.2455 53.2019 54.3744 52.5275 54.3744C51.8558 54.3744 51.2691 54.2455 50.7674 53.9878C50.2657 53.7274 49.8764 53.371 49.5995 52.9186C49.3226 52.4635 49.1842 51.9413 49.1842 51.3518V45.8126H50.4549V51.249C50.4549 51.6301 50.5385 51.9687 50.7057 52.2648C50.8757 52.5609 51.1156 52.7939 51.4254 52.9639C51.7352 53.1311 52.1025 53.2147 52.5275 53.2147C52.9551 53.2147 53.3239 53.1311 53.6337 52.9639C53.9462 52.7939 54.1847 52.5609 54.3492 52.2648C54.5164 51.9687 54.6001 51.6301 54.6001 51.249V45.8126ZM60.2608 45.8126L62.2758 49.1065H62.3416L64.3566 45.8126H65.8288L63.2052 50.0236L65.8453 54.2346H64.3649L62.3416 50.9858H62.2758L60.2526 54.2346H58.7721L61.4575 50.0236L58.7886 45.8126H60.2608ZM71.8525 45.4178L69.1384 55.5012H68.0404L70.7545 45.4178H71.8525ZM80.0659 45.8126H81.3408V51.3518C81.3408 51.9413 81.2023 52.4635 80.9254 52.9186C80.6485 53.371 80.2592 53.7274 79.7575 53.9878C79.2558 54.2455 78.6678 54.3744 77.9933 54.3744C77.3217 54.3744 76.735 54.2455 76.2333 53.9878C75.7316 53.7274 75.3423 53.371 75.0654 52.9186C74.7885 52.4635 74.65 51.9413 74.65 51.3518V45.8126H75.9207V51.249C75.9207 51.6301 76.0044 51.9687 76.1716 52.2648C76.3416 52.5609 76.5814 52.7939 76.8912 52.9639C77.201 53.1311 77.5684 53.2147 77.9933 53.2147C78.421 53.2147 78.7898 53.1311 79.0995 52.9639C79.4121 52.7939 79.6506 52.5609 79.8151 52.2648C79.9823 51.9687 80.0659 51.6301 80.0659 51.249V45.8126ZM86.1132 45.8126V54.2346H84.8425V45.8126H86.1132ZM97.0636 54.2346H94.3371V45.8126H97.1499C97.9751 45.8126 98.6838 45.9812 99.276 46.3184C99.8682 46.6528 100.322 47.134 100.637 47.7618C100.955 48.3869 101.114 49.1367 101.114 50.0112C101.114 50.8885 100.954 51.6424 100.633 52.273C100.315 52.9036 99.8544 53.3888 99.2513 53.7288C98.6482 54.066 97.9189 54.2346 97.0636 54.2346ZM95.6078 53.1242H96.9937C97.6352 53.1242 98.1684 53.0036 98.5933 52.7624C99.0183 52.5184 99.3363 52.1661 99.5474 51.7055C99.7585 51.2422 99.864 50.6774 99.864 50.0112C99.864 49.3505 99.7585 48.7899 99.5474 48.3293C99.339 47.8687 99.0279 47.5192 98.6139 47.2807C98.1999 47.0421 97.6859 46.9229 97.0718 46.9229H95.6078V53.1242ZM104.349 54.2346V45.8126H109.629V46.9064H105.619V49.4725H109.353V50.5623H105.619V53.1407H109.678V54.2346H104.349ZM117.574 48.025C117.53 47.6357 117.349 47.3341 117.031 47.1203C116.713 46.9037 116.313 46.7954 115.83 46.7954C115.485 46.7954 115.186 46.8502 114.934 46.9599C114.682 47.0668 114.486 47.2149 114.346 47.404C114.209 47.5905 114.14 47.8029 114.14 48.0414C114.14 48.2416 114.187 48.4143 114.28 48.5596C114.376 48.7049 114.501 48.8269 114.654 48.9256C114.81 49.0215 114.978 49.1024 115.156 49.1682C115.334 49.2313 115.505 49.2834 115.67 49.3245L116.492 49.5383C116.761 49.6041 117.037 49.6932 117.319 49.8056C117.601 49.918 117.863 50.0661 118.104 50.2497C118.346 50.4334 118.54 50.661 118.688 50.9324C118.839 51.2038 118.915 51.5287 118.915 51.907C118.915 52.384 118.791 52.8076 118.544 53.1777C118.3 53.5478 117.945 53.8398 117.479 54.0536C117.016 54.2675 116.455 54.3744 115.797 54.3744C115.167 54.3744 114.621 54.2743 114.161 54.0742C113.7 53.8741 113.34 53.5903 113.079 53.2229C112.819 52.8528 112.675 52.4142 112.647 51.907H113.922C113.947 52.2113 114.046 52.4649 114.218 52.6678C114.394 52.8679 114.617 53.0173 114.889 53.116C115.163 53.212 115.463 53.2599 115.789 53.2599C116.148 53.2599 116.468 53.2037 116.747 53.0913C117.03 52.9762 117.252 52.8172 117.414 52.6143C117.575 52.4087 117.656 52.1688 117.656 51.8947C117.656 51.6452 117.585 51.4409 117.442 51.2819C117.303 51.1229 117.112 50.9913 116.871 50.8872C116.632 50.783 116.362 50.6911 116.061 50.6116L115.065 50.3402C114.391 50.1565 113.856 49.8865 113.462 49.5301C113.07 49.1737 112.874 48.7021 112.874 48.1155C112.874 47.6302 113.005 47.2066 113.268 46.8448C113.532 46.4829 113.888 46.2019 114.338 46.0017C114.787 45.7989 115.294 45.6974 115.859 45.6974C116.429 45.6974 116.932 45.7975 117.368 45.9976C117.807 46.1978 118.152 46.4733 118.405 46.8242C118.657 47.1724 118.788 47.5726 118.799 48.025H117.574ZM123.358 45.8126V54.2346H122.087V45.8126H123.358ZM132.563 48.4732C132.483 48.2237 132.376 48.0003 132.242 47.8029C132.11 47.6028 131.953 47.4328 131.769 47.293C131.585 47.1504 131.376 47.0421 131.14 46.9681C130.907 46.8941 130.65 46.8571 130.371 46.8571C129.896 46.8571 129.469 46.9791 129.088 47.2231C128.707 47.4671 128.405 47.8249 128.183 48.2964C127.964 48.7652 127.854 49.3396 127.854 50.0195C127.854 50.7021 127.965 51.2792 128.187 51.7507C128.409 52.2223 128.713 52.58 129.1 52.824C129.487 53.068 129.927 53.19 130.42 53.19C130.878 53.19 131.277 53.0968 131.617 52.9104C131.959 52.724 132.224 52.4608 132.41 52.1208C132.6 51.7781 132.694 51.3751 132.694 50.9118L133.023 50.9735H130.613V49.9249H133.924V50.883C133.924 51.5904 133.773 52.2045 133.471 52.7254C133.173 53.2435 132.759 53.6438 132.229 53.9261C131.703 54.2085 131.1 54.3497 130.42 54.3497C129.658 54.3497 128.989 54.1743 128.413 53.8233C127.84 53.4724 127.393 52.9748 127.073 52.3306C126.752 51.6836 126.592 50.9159 126.592 50.0277C126.592 49.356 126.685 48.7529 126.871 48.2183C127.058 47.6837 127.319 47.2299 127.657 46.8571C127.997 46.4815 128.395 46.195 128.853 45.9976C129.314 45.7975 129.817 45.6974 130.363 45.6974C130.818 45.6974 131.241 45.7646 131.633 45.8989C132.028 46.0333 132.379 46.2238 132.686 46.4705C132.996 46.7173 133.252 47.0106 133.455 47.3506C133.658 47.6878 133.795 48.062 133.866 48.4732H132.563ZM143.989 45.8126V54.2346H142.821L138.54 48.0579H138.462V54.2346H137.191V45.8126H138.367L142.652 51.9975H142.73V45.8126H143.989ZM147.497 54.2346V45.8126H152.777V46.9064H148.767V49.4725H152.501V50.5623H148.767V53.1407H152.826V54.2346H147.497ZM156.129 54.2346V45.8126H159.131C159.783 45.8126 160.324 45.925 160.755 46.1498C161.188 46.3746 161.512 46.6857 161.725 47.0833C161.939 47.4781 162.046 47.9345 162.046 48.4527C162.046 48.9681 161.938 49.4218 161.721 49.8138C161.507 50.2031 161.184 50.5061 160.751 50.7227C160.32 50.9392 159.779 51.0475 159.126 51.0475H156.852V49.9537H159.011C159.423 49.9537 159.757 49.8947 160.015 49.7768C160.275 49.6589 160.466 49.4876 160.586 49.2628C160.707 49.038 160.767 48.7679 160.767 48.4527C160.767 48.1346 160.706 47.8591 160.582 47.6261C160.462 47.3931 160.271 47.2149 160.011 47.0915C159.753 46.9654 159.414 46.9023 158.995 46.9023H157.399V54.2346H156.129ZM160.286 50.4348L162.367 54.2346H160.919L158.88 50.4348H160.286Z" fill="white"/>
<defs>
<linearGradient id="paint0_linear_25_7898" x1="-4.96296" y1="23.9877" x2="59.5556" y2="23.9877" gradientUnits="userSpaceOnUse">
<stop stop-color="#F001B0"/>
<stop offset="1" stop-color="#F001B0" stop-opacity="0"/>
</linearGradient>
</defs>
</svg>
