<svg width="196" height="48" viewBox="0 0 196 48" fill="none" xmlns="http://www.w3.org/2000/svg">
<circle cx="23.5" cy="23.5" r="23.2099" stroke="url(#paint0_linear_25_7898)" stroke-width="0.580247"/>
<path d="M20.1177 32.1543H23.5322L25.8747 22.9232L28.2966 32.1543H31.7112L35.5823 18.258H32.5648L29.9443 28.4023L27.3041 18.258H24.624L21.9043 28.4023L19.3435 18.2382L16.2466 18.258L20.1177 32.1543ZM40.7352 32.2734C43.4549 32.2734 45.2217 30.6853 45.5394 28.7001H42.78C42.5417 29.653 41.7477 30.1493 40.6161 30.1493C39.2066 30.1493 38.2736 29.2758 38.214 27.8266V27.6877H45.6188C45.6783 27.37 45.6982 27.0325 45.6982 26.7348C45.6585 23.7371 43.5939 21.8314 40.5367 21.8314C37.3803 21.8314 35.2958 23.8959 35.2958 27.0722C35.2958 30.2287 37.3406 32.2734 40.7352 32.2734ZM38.2736 25.8613C38.4324 24.6503 39.3456 23.9158 40.5566 23.9158C41.8271 23.9158 42.6807 24.6106 42.8792 25.8613H38.2736ZM47.2279 32.1543H50.027V18.258H47.2279V32.1543ZM53.3871 20.8586C54.3002 20.8586 55.0149 20.1837 55.0149 19.2903C55.0149 18.3771 54.3002 17.7022 53.3871 17.7022C52.4739 17.7022 51.7592 18.3771 51.7592 19.2903C51.7592 20.1837 52.4739 20.8586 53.3871 20.8586ZM51.9776 32.1543H54.7965V21.9505H51.9776V32.1543ZM62.5836 21.8314C61.0153 21.8314 60.0823 22.4269 59.4271 23.221L59.1691 21.9505H56.7273V32.1543H59.5264V26.9333C59.5264 25.1665 60.3602 24.1342 61.8094 24.1342C63.2188 24.1342 63.874 25.0474 63.874 26.7745V32.1543H66.6731V26.4965C66.6731 23.0026 64.7871 21.8314 62.5836 21.8314ZM75.9408 23.3599C75.2658 22.4666 74.2335 21.8115 72.7645 21.8115C70.0448 21.8115 68.0397 23.8364 68.0397 26.9531C68.0397 30.1096 70.0448 32.1146 72.7843 32.0948C74.2137 32.0948 75.2261 31.5389 75.9011 30.6853V31.7573C75.9011 33.3454 74.968 34.1197 73.3997 34.1197C72.1094 34.1197 71.3351 33.5638 71.0771 32.5911H68.2581C68.3971 34.9534 70.3426 36.2438 73.1814 36.2438C77.0922 36.2438 78.6406 34.3777 78.6406 31.8565V21.9505H76.179L75.9408 23.3599ZM73.3997 29.8515C71.8711 29.8515 70.8984 28.6802 70.8984 26.973C70.8984 25.2657 71.8711 24.0746 73.3997 24.0746C74.9283 24.0746 75.8812 25.2856 75.8812 26.9928C75.8812 28.6802 74.9283 29.8515 73.3997 29.8515ZM81.4042 29.2361C81.4042 31.1816 82.377 32.1543 84.3224 32.1543H86.6054V29.7919H85.2158C84.4813 29.7919 84.2033 29.4942 84.2033 28.7795V24.3128H86.5459V21.9505H84.2033V19.0918H81.4042V21.9505H79.7168V24.3128H81.4042V29.2361ZM92.7286 32.2734C95.9843 32.2734 98.1085 30.2088 98.1085 27.0524C98.1085 23.9158 95.9843 21.8314 92.7286 21.8314C89.4729 21.8314 87.3488 23.9158 87.3488 27.0524C87.3488 30.189 89.4729 32.2734 92.7286 32.2734ZM92.7286 29.9905C91.1603 29.9905 90.2074 28.7795 90.2074 27.0524C90.2074 25.3253 91.1603 24.1143 92.7286 24.1143C94.2969 24.1143 95.2697 25.3253 95.2697 27.0524C95.2697 28.7795 94.2969 29.9905 92.7286 29.9905ZM105.505 21.8314C103.937 21.8314 103.004 22.4269 102.349 23.221L102.091 21.9505H99.6492V32.1543H102.448V26.9333C102.448 25.1665 103.282 24.1342 104.731 24.1342C106.141 24.1342 106.796 25.0474 106.796 26.7745V32.1543H109.595V26.4965C109.595 23.0026 107.709 21.8314 105.505 21.8314ZM116.501 32.1543H119.34V22.8438L122.953 32.1543H125.375L128.988 22.8438V32.1543H131.827V18.258H127.995L124.263 28.4619L120.412 18.258H116.501V32.1543ZM143.71 29.7919C143.273 29.7919 143.055 29.6927 143.055 29.1567V25.5437C143.055 23.1019 141.407 21.8314 138.549 21.8314C135.849 21.8314 134.022 23.1416 133.824 25.1268H136.524C136.643 24.3724 137.377 23.8761 138.469 23.8761C139.641 23.8761 140.296 24.4717 140.296 25.3848V25.8811H138.271C135.214 25.8811 133.586 27.1119 133.586 29.2758C133.586 31.2213 135.174 32.2734 137.377 32.2734C138.966 32.2734 139.998 31.6183 140.713 30.4868C140.693 31.4595 141.149 32.1543 142.598 32.1543H144.028V29.7919H143.71ZM140.296 27.9457C140.276 29.3354 139.382 30.2485 137.913 30.2485C136.98 30.2485 136.405 29.7919 136.405 29.0773C136.405 28.2237 137.08 27.7472 138.251 27.7472H140.296V27.9457ZM150.848 21.9505C149.26 21.9505 148.466 22.5659 147.91 23.4791L147.652 21.9505H145.111V32.1543H147.91V27.1517C147.91 25.6032 148.545 24.4915 150.213 24.4915H151.324V21.9505H150.848ZM153.755 29.2361C153.755 31.1816 154.728 32.1543 156.673 32.1543H158.956V29.7919H157.566C156.832 29.7919 156.554 29.4942 156.554 28.7795V24.3128H158.897V21.9505H156.554V19.0918H153.755V21.9505H152.068V24.3128H153.755V29.2361ZM161.661 20.8586C162.574 20.8586 163.289 20.1837 163.289 19.2903C163.289 18.3771 162.574 17.7022 161.661 17.7022C160.748 17.7022 160.033 18.3771 160.033 19.2903C160.033 20.1837 160.748 20.8586 161.661 20.8586ZM160.252 32.1543H163.071V21.9505H160.252V32.1543ZM170.858 21.8314C169.289 21.8314 168.356 22.4269 167.701 23.221L167.443 21.9505H165.001V32.1543H167.8V26.9333C167.8 25.1665 168.634 24.1342 170.083 24.1342C171.493 24.1342 172.148 25.0474 172.148 26.7745V32.1543H174.947V26.4965C174.947 23.0026 173.061 21.8314 170.858 21.8314ZM176.234 28.7597C176.353 30.9434 178.279 32.2734 181.118 32.2734C183.857 32.2734 185.763 30.9831 185.763 28.9582C185.763 26.6554 183.818 26.1194 181.475 25.8811C180.006 25.7025 179.133 25.6231 179.133 24.8488C179.133 24.1937 179.847 23.7967 180.939 23.7967C182.071 23.7967 182.845 24.293 182.924 25.1069H185.604C185.465 23.0225 183.58 21.8115 180.84 21.8115C178.22 21.7917 176.453 23.1217 176.453 25.1466C176.453 27.2509 178.299 27.7869 180.681 28.0648C182.329 28.2832 183.024 28.3428 183.024 29.1765C183.024 29.8912 182.309 30.2684 181.138 30.2684C179.768 30.2684 178.994 29.653 178.894 28.7597H176.234Z" fill="black"/>
<defs>
<linearGradient id="paint0_linear_25_7898" x1="-3.48148" y1="16.8272" x2="41.7778" y2="16.8272" gradientUnits="userSpaceOnUse">
<stop stop-color="#F001B0"/>
<stop offset="1" stop-color="#F001B0" stop-opacity="0"/>
</linearGradient>
</defs>
</svg>
